<mxfile host="65bd71144e">
    <diagram id="ka5x0h2ovi7XF2Ps3Ff2" name="Page-1">
        <mxGraphModel dx="1217" dy="557" grid="1" gridSize="10" guides="1" tooltips="1" connect="1" arrows="1" fold="1" page="1" pageScale="1" pageWidth="850" pageHeight="1100" math="0" shadow="0">
            <root>
                <mxCell id="0"/>
                <mxCell id="1" parent="0"/>
                <mxCell id="15" value="user" style="shape=table;startSize=30;container=1;collapsible=0;childLayout=tableLayout;" parent="1" vertex="1">
                    <mxGeometry x="140" y="18" width="200" height="287" as="geometry"/>
                </mxCell>
                <mxCell id="16" value="" style="shape=tableRow;horizontal=0;startSize=0;swimlaneHead=0;swimlaneBody=0;top=0;left=0;bottom=0;right=0;collapsible=0;dropTarget=0;fillColor=none;points=[[0,0.5],[1,0.5]];portConstraint=eastwest;" parent="15" vertex="1">
                    <mxGeometry y="30" width="200" height="43" as="geometry"/>
                </mxCell>
                <mxCell id="17" value="string" style="shape=partialRectangle;html=1;whiteSpace=wrap;connectable=0;overflow=hidden;fillColor=none;top=0;left=0;bottom=0;right=0;pointerEvents=1;" parent="16" vertex="1">
                    <mxGeometry width="110" height="43" as="geometry">
                        <mxRectangle width="110" height="43" as="alternateBounds"/>
                    </mxGeometry>
                </mxCell>
                <mxCell id="18" value="first_name" style="shape=partialRectangle;html=1;whiteSpace=wrap;connectable=0;overflow=hidden;fillColor=none;top=0;left=0;bottom=0;right=0;pointerEvents=1;" parent="16" vertex="1">
                    <mxGeometry x="110" width="90" height="43" as="geometry">
                        <mxRectangle width="90" height="43" as="alternateBounds"/>
                    </mxGeometry>
                </mxCell>
                <mxCell id="19" value="" style="shape=tableRow;horizontal=0;startSize=0;swimlaneHead=0;swimlaneBody=0;top=0;left=0;bottom=0;right=0;collapsible=0;dropTarget=0;fillColor=none;points=[[0,0.5],[1,0.5]];portConstraint=eastwest;" parent="15" vertex="1">
                    <mxGeometry y="73" width="200" height="42" as="geometry"/>
                </mxCell>
                <mxCell id="20" value="string" style="shape=partialRectangle;html=1;whiteSpace=wrap;connectable=0;overflow=hidden;fillColor=none;top=0;left=0;bottom=0;right=0;pointerEvents=1;" parent="19" vertex="1">
                    <mxGeometry width="110" height="42" as="geometry">
                        <mxRectangle width="110" height="42" as="alternateBounds"/>
                    </mxGeometry>
                </mxCell>
                <mxCell id="21" value="last_name" style="shape=partialRectangle;html=1;whiteSpace=wrap;connectable=0;overflow=hidden;fillColor=none;top=0;left=0;bottom=0;right=0;pointerEvents=1;" parent="19" vertex="1">
                    <mxGeometry x="110" width="90" height="42" as="geometry">
                        <mxRectangle width="90" height="42" as="alternateBounds"/>
                    </mxGeometry>
                </mxCell>
                <mxCell id="22" value="" style="shape=tableRow;horizontal=0;startSize=0;swimlaneHead=0;swimlaneBody=0;top=0;left=0;bottom=0;right=0;collapsible=0;dropTarget=0;fillColor=none;points=[[0,0.5],[1,0.5]];portConstraint=eastwest;" parent="15" vertex="1">
                    <mxGeometry y="115" width="200" height="43" as="geometry"/>
                </mxCell>
                <mxCell id="23" value="belongs_to&amp;nbsp;" style="shape=partialRectangle;html=1;whiteSpace=wrap;connectable=0;overflow=hidden;fillColor=none;top=0;left=0;bottom=0;right=0;pointerEvents=1;" parent="22" vertex="1">
                    <mxGeometry width="110" height="43" as="geometry">
                        <mxRectangle width="110" height="43" as="alternateBounds"/>
                    </mxGeometry>
                </mxCell>
                <mxCell id="24" value="login" style="shape=partialRectangle;html=1;whiteSpace=wrap;connectable=0;overflow=hidden;fillColor=none;top=0;left=0;bottom=0;right=0;pointerEvents=1;" parent="22" vertex="1">
                    <mxGeometry x="110" width="90" height="43" as="geometry">
                        <mxRectangle width="90" height="43" as="alternateBounds"/>
                    </mxGeometry>
                </mxCell>
                <mxCell id="238" style="shape=tableRow;horizontal=0;startSize=0;swimlaneHead=0;swimlaneBody=0;top=0;left=0;bottom=0;right=0;collapsible=0;dropTarget=0;fillColor=none;points=[[0,0.5],[1,0.5]];portConstraint=eastwest;" parent="15" vertex="1">
                    <mxGeometry y="158" width="200" height="43" as="geometry"/>
                </mxCell>
                <mxCell id="239" value="string" style="shape=partialRectangle;html=1;whiteSpace=wrap;connectable=0;overflow=hidden;fillColor=none;top=0;left=0;bottom=0;right=0;pointerEvents=1;" parent="238" vertex="1">
                    <mxGeometry width="110" height="43" as="geometry">
                        <mxRectangle width="110" height="43" as="alternateBounds"/>
                    </mxGeometry>
                </mxCell>
                <mxCell id="240" value="username" style="shape=partialRectangle;html=1;whiteSpace=wrap;connectable=0;overflow=hidden;fillColor=none;top=0;left=0;bottom=0;right=0;pointerEvents=1;" parent="238" vertex="1">
                    <mxGeometry x="110" width="90" height="43" as="geometry">
                        <mxRectangle width="90" height="43" as="alternateBounds"/>
                    </mxGeometry>
                </mxCell>
                <mxCell id="241" style="shape=tableRow;horizontal=0;startSize=0;swimlaneHead=0;swimlaneBody=0;top=0;left=0;bottom=0;right=0;collapsible=0;dropTarget=0;fillColor=none;points=[[0,0.5],[1,0.5]];portConstraint=eastwest;" parent="15" vertex="1">
                    <mxGeometry y="201" width="200" height="43" as="geometry"/>
                </mxCell>
                <mxCell id="242" value="string" style="shape=partialRectangle;html=1;whiteSpace=wrap;connectable=0;overflow=hidden;fillColor=none;top=0;left=0;bottom=0;right=0;pointerEvents=1;" parent="241" vertex="1">
                    <mxGeometry width="110" height="43" as="geometry">
                        <mxRectangle width="110" height="43" as="alternateBounds"/>
                    </mxGeometry>
                </mxCell>
                <mxCell id="243" value="password" style="shape=partialRectangle;html=1;whiteSpace=wrap;connectable=0;overflow=hidden;fillColor=none;top=0;left=0;bottom=0;right=0;pointerEvents=1;" parent="241" vertex="1">
                    <mxGeometry x="110" width="90" height="43" as="geometry">
                        <mxRectangle width="90" height="43" as="alternateBounds"/>
                    </mxGeometry>
                </mxCell>
                <mxCell id="247" style="shape=tableRow;horizontal=0;startSize=0;swimlaneHead=0;swimlaneBody=0;top=0;left=0;bottom=0;right=0;collapsible=0;dropTarget=0;fillColor=none;points=[[0,0.5],[1,0.5]];portConstraint=eastwest;" parent="15" vertex="1">
                    <mxGeometry y="244" width="200" height="43" as="geometry"/>
                </mxCell>
                <mxCell id="248" value="string" style="shape=partialRectangle;html=1;whiteSpace=wrap;connectable=0;overflow=hidden;fillColor=none;top=0;left=0;bottom=0;right=0;pointerEvents=1;" parent="247" vertex="1">
                    <mxGeometry width="110" height="43" as="geometry">
                        <mxRectangle width="110" height="43" as="alternateBounds"/>
                    </mxGeometry>
                </mxCell>
                <mxCell id="249" value="email" style="shape=partialRectangle;html=1;whiteSpace=wrap;connectable=0;overflow=hidden;fillColor=none;top=0;left=0;bottom=0;right=0;pointerEvents=1;" parent="247" vertex="1">
                    <mxGeometry x="110" width="90" height="43" as="geometry">
                        <mxRectangle width="90" height="43" as="alternateBounds"/>
                    </mxGeometry>
                </mxCell>
                <mxCell id="91" value="posts" style="shape=table;startSize=30;container=1;collapsible=0;childLayout=tableLayout;" parent="1" vertex="1">
                    <mxGeometry x="630" y="40" width="200" height="222" as="geometry"/>
                </mxCell>
                <mxCell id="92" value="" style="shape=tableRow;horizontal=0;startSize=0;swimlaneHead=0;swimlaneBody=0;top=0;left=0;bottom=0;right=0;collapsible=0;dropTarget=0;fillColor=none;points=[[0,0.5],[1,0.5]];portConstraint=eastwest;" parent="91" vertex="1">
                    <mxGeometry y="30" width="200" height="43" as="geometry"/>
                </mxCell>
                <mxCell id="93" value="string" style="shape=partialRectangle;html=1;whiteSpace=wrap;connectable=0;overflow=hidden;fillColor=none;top=0;left=0;bottom=0;right=0;pointerEvents=1;" parent="92" vertex="1">
                    <mxGeometry width="100" height="43" as="geometry">
                        <mxRectangle width="100" height="43" as="alternateBounds"/>
                    </mxGeometry>
                </mxCell>
                <mxCell id="94" value="caption" style="shape=partialRectangle;html=1;whiteSpace=wrap;connectable=0;overflow=hidden;fillColor=none;top=0;left=0;bottom=0;right=0;pointerEvents=1;" parent="92" vertex="1">
                    <mxGeometry x="100" width="100" height="43" as="geometry">
                        <mxRectangle width="100" height="43" as="alternateBounds"/>
                    </mxGeometry>
                </mxCell>
                <mxCell id="95" value="" style="shape=tableRow;horizontal=0;startSize=0;swimlaneHead=0;swimlaneBody=0;top=0;left=0;bottom=0;right=0;collapsible=0;dropTarget=0;fillColor=none;points=[[0,0.5],[1,0.5]];portConstraint=eastwest;" parent="91" vertex="1">
                    <mxGeometry y="73" width="200" height="42" as="geometry"/>
                </mxCell>
                <mxCell id="96" value="datetime" style="shape=partialRectangle;html=1;whiteSpace=wrap;connectable=0;overflow=hidden;fillColor=none;top=0;left=0;bottom=0;right=0;pointerEvents=1;" parent="95" vertex="1">
                    <mxGeometry width="100" height="42" as="geometry">
                        <mxRectangle width="100" height="42" as="alternateBounds"/>
                    </mxGeometry>
                </mxCell>
                <mxCell id="97" value="date" style="shape=partialRectangle;html=1;whiteSpace=wrap;connectable=0;overflow=hidden;fillColor=none;top=0;left=0;bottom=0;right=0;pointerEvents=1;" parent="95" vertex="1">
                    <mxGeometry x="100" width="100" height="42" as="geometry">
                        <mxRectangle width="100" height="42" as="alternateBounds"/>
                    </mxGeometry>
                </mxCell>
                <mxCell id="98" value="" style="shape=tableRow;horizontal=0;startSize=0;swimlaneHead=0;swimlaneBody=0;top=0;left=0;bottom=0;right=0;collapsible=0;dropTarget=0;fillColor=none;points=[[0,0.5],[1,0.5]];portConstraint=eastwest;" parent="91" vertex="1">
                    <mxGeometry y="115" width="200" height="43" as="geometry"/>
                </mxCell>
                <mxCell id="99" value="url?" style="shape=partialRectangle;html=1;whiteSpace=wrap;connectable=0;overflow=hidden;fillColor=none;top=0;left=0;bottom=0;right=0;pointerEvents=1;" parent="98" vertex="1">
                    <mxGeometry width="100" height="43" as="geometry">
                        <mxRectangle width="100" height="43" as="alternateBounds"/>
                    </mxGeometry>
                </mxCell>
                <mxCell id="100" value="image" style="shape=partialRectangle;html=1;whiteSpace=wrap;connectable=0;overflow=hidden;fillColor=none;top=0;left=0;bottom=0;right=0;pointerEvents=1;" parent="98" vertex="1">
                    <mxGeometry x="100" width="100" height="43" as="geometry">
                        <mxRectangle width="100" height="43" as="alternateBounds"/>
                    </mxGeometry>
                </mxCell>
                <mxCell id="101" value="" style="shape=tableRow;horizontal=0;startSize=0;swimlaneHead=0;swimlaneBody=0;top=0;left=0;bottom=0;right=0;collapsible=0;dropTarget=0;fillColor=none;points=[[0,0.5],[1,0.5]];portConstraint=eastwest;" parent="91" vertex="1">
                    <mxGeometry y="158" width="200" height="32" as="geometry"/>
                </mxCell>
                <mxCell id="102" value="integer" style="shape=partialRectangle;html=1;whiteSpace=wrap;connectable=0;overflow=hidden;fillColor=none;top=0;left=0;bottom=0;right=0;pointerEvents=1;" parent="101" vertex="1">
                    <mxGeometry width="100" height="32" as="geometry">
                        <mxRectangle width="100" height="32" as="alternateBounds"/>
                    </mxGeometry>
                </mxCell>
                <mxCell id="103" value="likes" style="shape=partialRectangle;html=1;whiteSpace=wrap;connectable=0;overflow=hidden;fillColor=none;top=0;left=0;bottom=0;right=0;pointerEvents=1;" parent="101" vertex="1">
                    <mxGeometry x="100" width="100" height="32" as="geometry">
                        <mxRectangle width="100" height="32" as="alternateBounds"/>
                    </mxGeometry>
                </mxCell>
                <mxCell id="104" style="shape=tableRow;horizontal=0;startSize=0;swimlaneHead=0;swimlaneBody=0;top=0;left=0;bottom=0;right=0;collapsible=0;dropTarget=0;fillColor=none;points=[[0,0.5],[1,0.5]];portConstraint=eastwest;" parent="91" vertex="1">
                    <mxGeometry y="190" width="200" height="32" as="geometry"/>
                </mxCell>
                <mxCell id="105" value="belongs_to" style="shape=partialRectangle;html=1;whiteSpace=wrap;connectable=0;overflow=hidden;fillColor=none;top=0;left=0;bottom=0;right=0;pointerEvents=1;" parent="104" vertex="1">
                    <mxGeometry width="100" height="32" as="geometry">
                        <mxRectangle width="100" height="32" as="alternateBounds"/>
                    </mxGeometry>
                </mxCell>
                <mxCell id="106" value="user" style="shape=partialRectangle;html=1;whiteSpace=wrap;connectable=0;overflow=hidden;fillColor=none;top=0;left=0;bottom=0;right=0;pointerEvents=1;" parent="104" vertex="1">
                    <mxGeometry x="100" width="100" height="32" as="geometry">
                        <mxRectangle width="100" height="32" as="alternateBounds"/>
                    </mxGeometry>
                </mxCell>
                <mxCell id="110" value="" style="whiteSpace=wrap;html=1;shadow=1;" parent="1" vertex="1">
                    <mxGeometry x="60" y="460" width="710" height="520" as="geometry"/>
                </mxCell>
                <mxCell id="111" value="" style="whiteSpace=wrap;html=1;" parent="1" vertex="1">
                    <mxGeometry x="290" y="620" width="230" height="340" as="geometry"/>
                </mxCell>
                <mxCell id="114" value="username" style="text;strokeColor=none;align=center;fillColor=none;html=1;verticalAlign=middle;whiteSpace=wrap;rounded=0;" parent="1" vertex="1">
                    <mxGeometry x="300" y="620" width="80" height="40" as="geometry"/>
                </mxCell>
                <mxCell id="117" value="" style="whiteSpace=wrap;html=1;" parent="1" vertex="1">
                    <mxGeometry x="60" y="460" width="710" height="50" as="geometry"/>
                </mxCell>
                <mxCell id="120" value="username" style="text;strokeColor=none;align=center;fillColor=none;html=1;verticalAlign=middle;whiteSpace=wrap;rounded=0;" parent="1" vertex="1">
                    <mxGeometry x="670" y="460" width="100" height="50" as="geometry"/>
                </mxCell>
                <mxCell id="121" value="" style="whiteSpace=wrap;html=1;shadow=1;" parent="1" vertex="1">
                    <mxGeometry x="630" y="500" width="120" height="170" as="geometry"/>
                </mxCell>
                <mxCell id="122" value="Account setting&lt;br&gt;&lt;br&gt;favorited&lt;br&gt;&lt;br&gt;create new post&lt;br&gt;&lt;br&gt;your account&lt;br&gt;&lt;br&gt;logout" style="text;strokeColor=none;align=center;fillColor=none;html=1;verticalAlign=middle;whiteSpace=wrap;rounded=0;shadow=1;" parent="1" vertex="1">
                    <mxGeometry x="640" y="510" width="100" height="150" as="geometry"/>
                </mxCell>
                <mxCell id="123" value="NAME OF THE SITE" style="text;strokeColor=none;align=center;fillColor=none;html=1;verticalAlign=middle;whiteSpace=wrap;rounded=0;shadow=1;" parent="1" vertex="1">
                    <mxGeometry x="305" y="460" width="180" height="50" as="geometry"/>
                </mxCell>
                <mxCell id="125" value="picture here" style="whiteSpace=wrap;html=1;shadow=1;" parent="1" vertex="1">
                    <mxGeometry x="290" y="660" width="230" height="230" as="geometry"/>
                </mxCell>
                <mxCell id="126" value="username: &quot;insert caption here&quot;" style="text;strokeColor=none;align=center;fillColor=none;html=1;verticalAlign=middle;whiteSpace=wrap;rounded=0;shadow=1;" parent="1" vertex="1">
                    <mxGeometry x="290" y="890" width="190" height="30" as="geometry"/>
                </mxCell>
                <mxCell id="127" value="&quot;add your own comment&quot;" style="whiteSpace=wrap;html=1;shadow=1;" parent="1" vertex="1">
                    <mxGeometry x="290" y="930" width="230" height="30" as="geometry"/>
                </mxCell>
                <mxCell id="128" value="" style="whiteSpace=wrap;html=1;shadow=0;" parent="1" vertex="1">
                    <mxGeometry x="485" y="760" width="255" height="240" as="geometry"/>
                </mxCell>
                <mxCell id="129" value="&quot;Enter comment here&quot;" style="whiteSpace=wrap;html=1;shadow=0;" parent="1" vertex="1">
                    <mxGeometry x="485" y="960" width="205" height="40" as="geometry"/>
                </mxCell>
                <mxCell id="130" value="send" style="whiteSpace=wrap;html=1;shadow=0;" parent="1" vertex="1">
                    <mxGeometry x="690" y="960" width="50" height="40" as="geometry"/>
                </mxCell>
                <mxCell id="131" value="user1: wow so cute!" style="text;strokeColor=none;align=center;fillColor=none;html=1;verticalAlign=middle;whiteSpace=wrap;rounded=0;shadow=0;" parent="1" vertex="1">
                    <mxGeometry x="485" y="790" width="125" height="30" as="geometry"/>
                </mxCell>
                <mxCell id="132" value="user2: awesome!" style="text;strokeColor=none;align=center;fillColor=none;html=1;verticalAlign=middle;whiteSpace=wrap;rounded=0;shadow=0;" parent="1" vertex="1">
                    <mxGeometry x="485" y="830" width="115" height="30" as="geometry"/>
                </mxCell>
                <mxCell id="133" value="comment section" style="whiteSpace=wrap;html=1;shadow=0;" parent="1" vertex="1">
                    <mxGeometry x="485" y="760" width="255" height="30" as="geometry"/>
                </mxCell>
                <mxCell id="213" value="comments " style="shape=table;startSize=30;container=1;collapsible=0;childLayout=tableLayout;" parent="1" vertex="1">
                    <mxGeometry x="390" y="280" width="200" height="158" as="geometry"/>
                </mxCell>
                <mxCell id="214" value="" style="shape=tableRow;horizontal=0;startSize=0;swimlaneHead=0;swimlaneBody=0;top=0;left=0;bottom=0;right=0;collapsible=0;dropTarget=0;fillColor=none;points=[[0,0.5],[1,0.5]];portConstraint=eastwest;" parent="213" vertex="1">
                    <mxGeometry y="30" width="200" height="43" as="geometry"/>
                </mxCell>
                <mxCell id="215" value="string" style="shape=partialRectangle;html=1;whiteSpace=wrap;connectable=0;overflow=hidden;fillColor=none;top=0;left=0;bottom=0;right=0;pointerEvents=1;" parent="214" vertex="1">
                    <mxGeometry width="100" height="43" as="geometry">
                        <mxRectangle width="100" height="43" as="alternateBounds"/>
                    </mxGeometry>
                </mxCell>
                <mxCell id="216" value="comments" style="shape=partialRectangle;html=1;whiteSpace=wrap;connectable=0;overflow=hidden;fillColor=none;top=0;left=0;bottom=0;right=0;pointerEvents=1;" parent="214" vertex="1">
                    <mxGeometry x="100" width="100" height="43" as="geometry">
                        <mxRectangle width="100" height="43" as="alternateBounds"/>
                    </mxGeometry>
                </mxCell>
                <mxCell id="217" value="" style="shape=tableRow;horizontal=0;startSize=0;swimlaneHead=0;swimlaneBody=0;top=0;left=0;bottom=0;right=0;collapsible=0;dropTarget=0;fillColor=none;points=[[0,0.5],[1,0.5]];portConstraint=eastwest;" parent="213" vertex="1">
                    <mxGeometry y="73" width="200" height="42" as="geometry"/>
                </mxCell>
                <mxCell id="218" value="belongs_to" style="shape=partialRectangle;html=1;whiteSpace=wrap;connectable=0;overflow=hidden;fillColor=none;top=0;left=0;bottom=0;right=0;pointerEvents=1;" parent="217" vertex="1">
                    <mxGeometry width="100" height="42" as="geometry">
                        <mxRectangle width="100" height="42" as="alternateBounds"/>
                    </mxGeometry>
                </mxCell>
                <mxCell id="219" value="posts" style="shape=partialRectangle;html=1;whiteSpace=wrap;connectable=0;overflow=hidden;fillColor=none;top=0;left=0;bottom=0;right=0;pointerEvents=1;" parent="217" vertex="1">
                    <mxGeometry x="100" width="100" height="42" as="geometry">
                        <mxRectangle width="100" height="42" as="alternateBounds"/>
                    </mxGeometry>
                </mxCell>
                <mxCell id="220" value="" style="shape=tableRow;horizontal=0;startSize=0;swimlaneHead=0;swimlaneBody=0;top=0;left=0;bottom=0;right=0;collapsible=0;dropTarget=0;fillColor=none;points=[[0,0.5],[1,0.5]];portConstraint=eastwest;" parent="213" vertex="1">
                    <mxGeometry y="115" width="200" height="43" as="geometry"/>
                </mxCell>
                <mxCell id="221" value="belongs_to" style="shape=partialRectangle;html=1;whiteSpace=wrap;connectable=0;overflow=hidden;fillColor=none;top=0;left=0;bottom=0;right=0;pointerEvents=1;" parent="220" vertex="1">
                    <mxGeometry width="100" height="43" as="geometry">
                        <mxRectangle width="100" height="43" as="alternateBounds"/>
                    </mxGeometry>
                </mxCell>
                <mxCell id="222" value="user" style="shape=partialRectangle;html=1;whiteSpace=wrap;connectable=0;overflow=hidden;fillColor=none;top=0;left=0;bottom=0;right=0;pointerEvents=1;" parent="220" vertex="1">
                    <mxGeometry x="100" width="100" height="43" as="geometry">
                        <mxRectangle width="100" height="43" as="alternateBounds"/>
                    </mxGeometry>
                </mxCell>
                <mxCell id="244" style="edgeStyle=none;html=1;exitX=1;exitY=0.5;exitDx=0;exitDy=0;entryX=-0.008;entryY=0.075;entryDx=0;entryDy=0;entryPerimeter=0;" parent="1" source="22" target="98" edge="1">
                    <mxGeometry relative="1" as="geometry"/>
                </mxCell>
                <mxCell id="245" style="edgeStyle=none;html=1;exitX=1;exitY=0.5;exitDx=0;exitDy=0;entryX=0.5;entryY=0;entryDx=0;entryDy=0;" parent="1" source="22" target="213" edge="1">
                    <mxGeometry relative="1" as="geometry"/>
                </mxCell>
                <mxCell id="246" style="edgeStyle=none;html=1;exitX=0;exitY=0.5;exitDx=0;exitDy=0;entryX=0.5;entryY=0;entryDx=0;entryDy=0;" parent="1" source="98" target="213" edge="1">
                    <mxGeometry relative="1" as="geometry"/>
                </mxCell>
                <mxCell id="259" style="edgeStyle=none;html=1;exitX=0.5;exitY=1;exitDx=0;exitDy=0;entryX=0.5;entryY=0;entryDx=0;entryDy=0;" edge="1" parent="1" source="250" target="251">
                    <mxGeometry relative="1" as="geometry"/>
                </mxCell>
                <mxCell id="260" style="edgeStyle=none;html=1;exitX=0.5;exitY=1;exitDx=0;exitDy=0;entryX=0.5;entryY=0;entryDx=0;entryDy=0;" edge="1" parent="1" source="250" target="252">
                    <mxGeometry relative="1" as="geometry"/>
                </mxCell>
                <mxCell id="261" style="edgeStyle=none;html=1;exitX=0.5;exitY=1;exitDx=0;exitDy=0;entryX=0.5;entryY=0;entryDx=0;entryDy=0;" edge="1" parent="1" source="250" target="253">
                    <mxGeometry relative="1" as="geometry"/>
                </mxCell>
                <mxCell id="274" style="edgeStyle=none;html=1;exitX=0.5;exitY=1;exitDx=0;exitDy=0;entryX=0.5;entryY=0;entryDx=0;entryDy=0;" edge="1" parent="1" source="250" target="273">
                    <mxGeometry relative="1" as="geometry"/>
                </mxCell>
                <mxCell id="250" value="APP&lt;br&gt;fetch(user)" style="whiteSpace=wrap;html=1;" vertex="1" parent="1">
                    <mxGeometry x="290" y="1160" width="245" height="90" as="geometry"/>
                </mxCell>
                <mxCell id="251" value="login" style="whiteSpace=wrap;html=1;" vertex="1" parent="1">
                    <mxGeometry x="20" y="1280" width="120" height="60" as="geometry"/>
                </mxCell>
                <mxCell id="252" value="sign_up" style="whiteSpace=wrap;html=1;" vertex="1" parent="1">
                    <mxGeometry x="240" y="1280" width="120" height="60" as="geometry"/>
                </mxCell>
                <mxCell id="262" style="edgeStyle=none;html=1;exitX=0.5;exitY=1;exitDx=0;exitDy=0;entryX=0.5;entryY=0;entryDx=0;entryDy=0;" edge="1" parent="1" source="253" target="255">
                    <mxGeometry relative="1" as="geometry"/>
                </mxCell>
                <mxCell id="272" style="edgeStyle=none;html=1;exitX=0.5;exitY=1;exitDx=0;exitDy=0;entryX=0.5;entryY=0;entryDx=0;entryDy=0;" edge="1" parent="1" source="253" target="266">
                    <mxGeometry relative="1" as="geometry"/>
                </mxCell>
                <mxCell id="253" value="main&lt;br&gt;fetch(post)" style="whiteSpace=wrap;html=1;" vertex="1" parent="1">
                    <mxGeometry x="460" y="1280" width="120" height="60" as="geometry"/>
                </mxCell>
                <mxCell id="263" style="edgeStyle=none;html=1;exitX=0.5;exitY=1;exitDx=0;exitDy=0;entryX=0.5;entryY=0;entryDx=0;entryDy=0;" edge="1" parent="1" source="255" target="257">
                    <mxGeometry relative="1" as="geometry"/>
                </mxCell>
                <mxCell id="269" style="edgeStyle=none;html=1;exitX=0.5;exitY=1;exitDx=0;exitDy=0;entryX=0.5;entryY=0;entryDx=0;entryDy=0;" edge="1" parent="1" source="255" target="265">
                    <mxGeometry relative="1" as="geometry"/>
                </mxCell>
                <mxCell id="255" value="post" style="whiteSpace=wrap;html=1;" vertex="1" parent="1">
                    <mxGeometry x="380" y="1380" width="120" height="60" as="geometry"/>
                </mxCell>
                <mxCell id="257" value="comment" style="whiteSpace=wrap;html=1;" vertex="1" parent="1">
                    <mxGeometry x="305" y="1480" width="120" height="60" as="geometry"/>
                </mxCell>
                <mxCell id="264" value="accountSetting" style="whiteSpace=wrap;html=1;" vertex="1" parent="1">
                    <mxGeometry x="720" y="1380" width="120" height="60" as="geometry"/>
                </mxCell>
                <mxCell id="265" value="liked" style="whiteSpace=wrap;html=1;" vertex="1" parent="1">
                    <mxGeometry x="450" y="1480" width="120" height="60" as="geometry"/>
                </mxCell>
                <mxCell id="266" value="newPost" style="whiteSpace=wrap;html=1;" vertex="1" parent="1">
                    <mxGeometry x="560" y="1380" width="120" height="60" as="geometry"/>
                </mxCell>
                <mxCell id="275" style="edgeStyle=none;html=1;exitX=0.5;exitY=1;exitDx=0;exitDy=0;entryX=0.5;entryY=0;entryDx=0;entryDy=0;" edge="1" parent="1" source="273" target="264">
                    <mxGeometry relative="1" as="geometry"/>
                </mxCell>
                <mxCell id="273" value="yourAccount" style="whiteSpace=wrap;html=1;" vertex="1" parent="1">
                    <mxGeometry x="660" y="1280" width="120" height="60" as="geometry"/>
                </mxCell>
                <mxCell id="278" style="edgeStyle=none;html=1;" edge="1" parent="1">
                    <mxGeometry relative="1" as="geometry">
                        <mxPoint x="1235" y="450" as="sourcePoint"/>
                        <mxPoint x="1235" y="450" as="targetPoint"/>
                    </mxGeometry>
                </mxCell>
            </root>
        </mxGraphModel>
    </diagram>
</mxfile>